<?xml version="1.0" encoding="utf-8"?>
<!-- Generator: Adobe Illustrator 19.2.0, SVG Export Plug-In . SVG Version: 6.00 Build 0)  -->
<svg version="1.1" id="Layer_1" xmlns="http://www.w3.org/2000/svg" xmlns:xlink="http://www.w3.org/1999/xlink" x="0px" y="0px"
	 viewBox="0 0 308.4 630.5" style="enable-background:new 0 0 308.4 630.5;" xml:space="preserve">
<style type="text/css">
	.st0{fill:#010101;}
	.st1{fill:#EDEDED;}
	.st2{fill:#CECECE;}
	.st3{fill:#1C1B28;}
</style>
<g>
	<g>
		<path class="st0" d="M153.8,540.5c-14.6,0-26.4,11.8-26.4,26.4s11.8,26.4,26.4,26.4s26.4-11.8,26.4-26.4S168.4,540.5,153.8,540.5z
			 M153.8,592.6c-14.1,0-25.6-11.5-25.6-25.6s11.5-25.6,25.6-25.6s25.6,11.5,25.6,25.6C179.5,581.1,168,592.6,153.8,592.6z"/>
	</g>
	<g>
		<path class="st0" d="M158.2,557.9h-9.1c-2.5,0-4.4,2.2-4.4,4.7v9.1c0,2.5,1.9,4.4,4.4,4.4h9.1c2.5,0,4.6-1.9,4.6-4.4v-9.1
			C162.9,560.1,160.7,557.9,158.2,557.9z M162.1,571.6c0,2-1.7,3.6-3.9,3.6h-9.1c-2.1,0-3.7-1.6-3.7-3.6v-9.1c0-2.1,1.6-3.9,3.7-3.9
			h9.1c2.1,0,3.9,1.8,3.9,3.9V571.6z"/>
	</g>
	<g>
		<g>
			<path class="st1" d="M52.8,613.2c-21.6,0-39.2-17.6-39.2-39.2V56.5c0-21.6,17.6-39.2,39.2-39.2h202.8c21.6,0,39.2,17.6,39.2,39.2
				V574c0,21.6-17.6,39.2-39.2,39.2H52.8z M274.5,530.3V102.9H34v427.4H274.5z"/>
		</g>
		<g>
			<path class="st2" d="M255.6,18.8c20.8,0,37.7,16.8,37.7,37.7V574c0,20.8-16.9,37.7-37.7,37.7H52.8c-20.8,0-37.7-16.9-37.7-37.7
				V56.5c0-20.9,16.9-37.7,37.7-37.7H255.6 M32.5,531.8h1.1h241.3h1.1v-1.1V102.5v-1.1h-1.1H33.6v-0.1h-1.1v1.1v428.3V531.8
				 M255.6,15.8H52.8c-22.4,0-40.7,18.3-40.7,40.7V574c0,22.4,18.3,40.7,40.7,40.7h202.8c22.4,0,40.7-18.3,40.7-40.7V56.5
				C296.3,34.1,278,15.8,255.6,15.8L255.6,15.8z M35.5,104.4H273v424.4H35.5V104.4L35.5,104.4z"/>
		</g>
	</g>
	<g>
		<path class="st1" d="M153.8,544.6c-14.6,0-26.4,11.8-26.4,26.4s11.8,26.4,26.4,26.4s26.4-11.8,26.4-26.4S168.4,544.6,153.8,544.6z
			"/>
		<path class="st2" d="M153.8,598.9c-15.4,0-27.9-12.5-27.9-27.9c0-15.4,12.5-27.9,27.9-27.9c15.4,0,27.9,12.5,27.9,27.9
			C181.7,586.4,169.2,598.9,153.8,598.9z M153.8,546.1c-13.7,0-24.9,11.2-24.9,24.9c0,13.7,11.2,24.9,24.9,24.9
			c13.7,0,24.9-11.2,24.9-24.9C178.7,557.3,167.5,546.1,153.8,546.1z"/>
	</g>
</g>
<rect x="35.5" y="104.4" class="st3" width="237.5" height="424.4"/>
</svg>
