<?xml version="1.0" encoding="utf-8"?>
<!-- Generator: Adobe Illustrator 19.2.0, SVG Export Plug-In . SVG Version: 6.00 Build 0)  -->
<svg version="1.1" xmlns="http://www.w3.org/2000/svg" xmlns:xlink="http://www.w3.org/1999/xlink" x="0px" y="0px"
	 viewBox="0 0 151.4 152.9" style="enable-background:new 0 0 151.4 152.9;" xml:space="preserve">
<style type="text/css">
	.st0{clip-path:url(#SVGID_2_);fill:#007AFF;}
	.st1{fill:#FFFFFF;}
	.st2{fill:#FF3B30;}
</style>
<g id="Layer_2">
</g>
<g id="Layer_3">
	<g>
		<g>
			<g>
				<g>
					<g>
						<g>
							<g>
								<defs>
									<path id="SVGID_1_" d="M98.7,145.2h-66c-14.9,0-27-12.1-27-27v-66c0-14.9,12.1-27,27-27h66c14.9,0,27,12.1,27,27v66
										C125.7,133.1,113.6,145.2,98.7,145.2z"/>
								</defs>
								<use xlink:href="#SVGID_1_"  style="overflow:visible;fill:#007AFF;"/>
								<clipPath id="SVGID_2_">
									<use xlink:href="#SVGID_1_"  style="overflow:visible;"/>
								</clipPath>
								<rect x="5.7" y="25.2" class="st0" width="120" height="8.4"/>
								<rect x="5.7" y="33.6" class="st0" width="120" height="0.7"/>
								<rect x="5.7" y="34.4" class="st0" width="120" height="0.7"/>
								<rect x="5.7" y="35.1" class="st0" width="120" height="0.7"/>
								<rect x="5.7" y="35.9" class="st0" width="120" height="0.7"/>
								<rect x="5.7" y="36.6" class="st0" width="120" height="0.7"/>
								<rect x="5.7" y="37.4" class="st0" width="120" height="0.7"/>
								<rect x="5.7" y="38.1" class="st0" width="120" height="0.7"/>
								<rect x="5.7" y="38.9" class="st0" width="120" height="0.7"/>
								<rect x="5.7" y="39.6" class="st0" width="120" height="0.7"/>
								<rect x="5.7" y="40.4" class="st0" width="120" height="0.7"/>
								<rect x="5.7" y="41.1" class="st0" width="120" height="0.7"/>
								<rect x="5.7" y="41.9" class="st0" width="120" height="0.7"/>
								<rect x="5.7" y="42.6" class="st0" width="120" height="0.7"/>
								<rect x="5.7" y="43.4" class="st0" width="120" height="0.7"/>
								<rect x="5.7" y="44.1" class="st0" width="120" height="0.7"/>
								<rect x="5.7" y="44.9" class="st0" width="120" height="0.7"/>
								<rect x="5.7" y="45.6" class="st0" width="120" height="0.7"/>
								<rect x="5.7" y="46.4" class="st0" width="120" height="0.7"/>
								<rect x="5.7" y="47.1" class="st0" width="120" height="0.7"/>
								<rect x="5.7" y="47.9" class="st0" width="120" height="0.7"/>
								<rect x="5.7" y="48.6" class="st0" width="120" height="0.7"/>
								<rect x="5.7" y="49.4" class="st0" width="120" height="0.7"/>
								<rect x="5.7" y="50.1" class="st0" width="120" height="0.7"/>
								<rect x="5.7" y="50.9" class="st0" width="120" height="0.7"/>
								<rect x="5.7" y="51.6" class="st0" width="120" height="0.7"/>
								<rect x="5.7" y="52.4" class="st0" width="120" height="0.7"/>
								<rect x="5.7" y="53.1" class="st0" width="120" height="0.7"/>
								<rect x="5.7" y="53.9" class="st0" width="120" height="0.7"/>
								<rect x="5.7" y="54.6" class="st0" width="120" height="0.7"/>
								<rect x="5.7" y="55.4" class="st0" width="120" height="0.7"/>
								<rect x="5.7" y="56.1" class="st0" width="120" height="0.7"/>
								<rect x="5.7" y="56.9" class="st0" width="120" height="0.7"/>
								<rect x="5.7" y="57.6" class="st0" width="120" height="0.7"/>
								<rect x="5.7" y="58.4" class="st0" width="120" height="0.7"/>
								<rect x="5.7" y="59.1" class="st0" width="120" height="0.7"/>
								<rect x="5.7" y="59.8" class="st0" width="120" height="0.7"/>
								<rect x="5.7" y="60.6" class="st0" width="120" height="0.7"/>
								<rect x="5.7" y="61.3" class="st0" width="120" height="0.7"/>
								<rect x="5.7" y="62.1" class="st0" width="120" height="0.7"/>
								<rect x="5.7" y="62.8" class="st0" width="120" height="0.7"/>
								<rect x="5.7" y="63.6" class="st0" width="120" height="0.7"/>
								<rect x="5.7" y="64.3" class="st0" width="120" height="0.7"/>
								<rect x="5.7" y="65.1" class="st0" width="120" height="0.7"/>
								<rect x="5.7" y="65.8" class="st0" width="120" height="0.7"/>
								<rect x="5.7" y="66.6" class="st0" width="120" height="0.7"/>
								<rect x="5.7" y="67.3" class="st0" width="120" height="0.7"/>
								<rect x="5.7" y="68.1" class="st0" width="120" height="0.7"/>
								<rect x="5.7" y="68.8" class="st0" width="120" height="0.7"/>
								<rect x="5.7" y="69.6" class="st0" width="120" height="0.7"/>
								<rect x="5.7" y="70.3" class="st0" width="120" height="0.7"/>
								<rect x="5.7" y="71.1" class="st0" width="120" height="0.7"/>
								<rect x="5.7" y="71.8" class="st0" width="120" height="0.7"/>
								<rect x="5.7" y="72.6" class="st0" width="120" height="0.7"/>
								<rect x="5.7" y="73.3" class="st0" width="120" height="0.7"/>
								<rect x="5.7" y="74.1" class="st0" width="120" height="0.7"/>
								<rect x="5.7" y="74.8" class="st0" width="120" height="0.7"/>
								<rect x="5.7" y="75.6" class="st0" width="120" height="0.7"/>
								<rect x="5.7" y="76.3" class="st0" width="120" height="0.7"/>
								<rect x="5.7" y="77.1" class="st0" width="120" height="0.7"/>
								<rect x="5.7" y="77.8" class="st0" width="120" height="0.7"/>
								<rect x="5.7" y="78.6" class="st0" width="120" height="0.7"/>
								<rect x="5.7" y="79.3" class="st0" width="120" height="0.7"/>
								<rect x="5.7" y="80.1" class="st0" width="120" height="0.7"/>
								<rect x="5.7" y="80.8" class="st0" width="120" height="0.7"/>
								<rect x="5.7" y="81.6" class="st0" width="120" height="0.7"/>
								<rect x="5.7" y="82.3" class="st0" width="120" height="0.7"/>
								<rect x="5.7" y="83.1" class="st0" width="120" height="0.7"/>
								<rect x="5.7" y="83.8" class="st0" width="120" height="0.7"/>
								<rect x="5.7" y="84.6" class="st0" width="120" height="0.7"/>
								<rect x="5.7" y="85.3" class="st0" width="120" height="0.7"/>
								<rect x="5.7" y="86.1" class="st0" width="120" height="0.7"/>
								<rect x="5.7" y="86.8" class="st0" width="120" height="0.7"/>
								<rect x="5.7" y="87.6" class="st0" width="120" height="0.7"/>
								<rect x="5.7" y="88.3" class="st0" width="120" height="0.7"/>
								<rect x="5.7" y="89.1" class="st0" width="120" height="0.7"/>
								<rect x="5.7" y="89.8" class="st0" width="120" height="0.7"/>
								<rect x="5.7" y="90.5" class="st0" width="120" height="0.7"/>
								<rect x="5.7" y="91.3" class="st0" width="120" height="0.7"/>
								<rect x="5.7" y="92" class="st0" width="120" height="0.7"/>
								<rect x="5.7" y="92.8" class="st0" width="120" height="0.7"/>
								<rect x="5.7" y="93.5" class="st0" width="120" height="0.7"/>
								<rect x="5.7" y="94.3" class="st0" width="120" height="0.7"/>
								<rect x="5.7" y="95" class="st0" width="120" height="0.7"/>
								<rect x="5.7" y="95.8" class="st0" width="120" height="0.7"/>
								<rect x="5.7" y="96.5" class="st0" width="120" height="0.7"/>
								<rect x="5.7" y="97.3" class="st0" width="120" height="0.7"/>
								<rect x="5.7" y="98" class="st0" width="120" height="0.7"/>
								<rect x="5.7" y="98.8" class="st0" width="120" height="0.7"/>
								<rect x="5.7" y="99.5" class="st0" width="120" height="0.7"/>
								<rect x="5.7" y="100.3" class="st0" width="120" height="0.7"/>
								<rect x="5.7" y="101" class="st0" width="120" height="0.7"/>
								<rect x="5.7" y="101.8" class="st0" width="120" height="0.7"/>
								<rect x="5.7" y="102.5" class="st0" width="120" height="0.7"/>
								<rect x="5.7" y="103.3" class="st0" width="120" height="0.7"/>
								<rect x="5.7" y="104" class="st0" width="120" height="0.7"/>
								<rect x="5.7" y="104.8" class="st0" width="120" height="0.7"/>
								<rect x="5.7" y="105.5" class="st0" width="120" height="0.7"/>
								<rect x="5.7" y="106.3" class="st0" width="120" height="0.7"/>
								<rect x="5.7" y="107" class="st0" width="120" height="0.7"/>
								<rect x="5.7" y="107.8" class="st0" width="120" height="0.7"/>
								<rect x="5.7" y="108.5" class="st0" width="120" height="0.7"/>
								<rect x="5.7" y="109.3" class="st0" width="120" height="0.7"/>
								<rect x="5.7" y="110" class="st0" width="120" height="0.7"/>
								<rect x="5.7" y="110.8" class="st0" width="120" height="0.7"/>
								<rect x="5.7" y="111.5" class="st0" width="120" height="0.7"/>
								<rect x="5.7" y="112.3" class="st0" width="120" height="0.7"/>
								<rect x="5.7" y="113" class="st0" width="120" height="0.7"/>
								<rect x="5.7" y="113.8" class="st0" width="120" height="0.7"/>
								<rect x="5.7" y="114.5" class="st0" width="120" height="0.7"/>
								<rect x="5.7" y="115.3" class="st0" width="120" height="0.7"/>
								<rect x="5.7" y="116" class="st0" width="120" height="0.7"/>
								<rect x="5.7" y="116.8" class="st0" width="120" height="0.7"/>
								<rect x="5.7" y="117.5" class="st0" width="120" height="0.7"/>
								<rect x="5.7" y="118.3" class="st0" width="120" height="0.7"/>
								<rect x="5.7" y="119" class="st0" width="120" height="0.7"/>
								<rect x="5.7" y="119.8" class="st0" width="120" height="0.7"/>
								<rect x="5.7" y="120.5" class="st0" width="120" height="0.7"/>
								<rect x="5.7" y="121.2" class="st0" width="120" height="0.7"/>
								<rect x="5.7" y="122" class="st0" width="120" height="0.7"/>
								<rect x="5.7" y="122.7" class="st0" width="120" height="0.7"/>
								<rect x="5.7" y="123.5" class="st0" width="120" height="0.7"/>
								<rect x="5.7" y="124.2" class="st0" width="120" height="0.7"/>
								<rect x="5.7" y="125" class="st0" width="120" height="0.7"/>
								<rect x="5.7" y="125.7" class="st0" width="120" height="0.7"/>
								<rect x="5.7" y="126.5" class="st0" width="120" height="0.7"/>
								<rect x="5.7" y="127.2" class="st0" width="120" height="0.7"/>
								<rect x="5.7" y="128" class="st0" width="120" height="0.7"/>
								<rect x="5.7" y="128.7" class="st0" width="120" height="0.7"/>
								<rect x="5.7" y="129.5" class="st0" width="120" height="0.7"/>
								<rect x="5.7" y="130.2" class="st0" width="120" height="0.7"/>
								<rect x="5.7" y="131" class="st0" width="120" height="0.7"/>
								<rect x="5.7" y="131.7" class="st0" width="120" height="0.7"/>
								<rect x="5.7" y="132.5" class="st0" width="120" height="0.7"/>
								<rect x="5.7" y="133.2" class="st0" width="120" height="0.7"/>
								<rect x="5.7" y="134" class="st0" width="120" height="0.7"/>
								<rect x="5.7" y="134.7" class="st0" width="120" height="0.7"/>
								<rect x="5.7" y="135.5" class="st0" width="120" height="0.7"/>
								<rect x="5.7" y="136.2" class="st0" width="120" height="0.7"/>
								<rect x="5.7" y="137" class="st0" width="120" height="0.7"/>
								<rect x="5.7" y="137.7" class="st0" width="120" height="0.7"/>
								<rect x="5.7" y="138.5" class="st0" width="120" height="0.7"/>
								<rect x="5.7" y="139.2" class="st0" width="120" height="0.7"/>
								<rect x="5.7" y="140" class="st0" width="120" height="0.7"/>
								<rect x="5.7" y="140.7" class="st0" width="120" height="0.7"/>
								<rect x="5.7" y="141.5" class="st0" width="120" height="0.7"/>
								<rect x="5.7" y="142.2" class="st0" width="120" height="0.7"/>
								<rect x="5.7" y="143" class="st0" width="120" height="0.7"/>
								<rect x="5.7" y="143.7" class="st0" width="120" height="0.7"/>
								<polygon class="st0" points="125.7,145.2 98.7,145.2 5.7,145.2 5.7,144.5 125.7,144.5 								"/>
								<polygon class="st0" points="98.7,145.2 125.7,145.2 125.7,145.2 								"/>
							</g>
						</g>
					</g>
				</g>
			</g>
			<g>
				<path class="st1" d="M65.9,93.9c2.4,0,4.6-1,6.3-2.7l31.2-32H27.9l31.7,32.1C61.2,93,63.5,93.9,65.9,93.9z"/>
				<polygon class="st1" points="48.7,84.8 25.7,61.4 25.7,108.3 				"/>
				<polygon class="st1" points="82.6,84.9 105.7,108.3 105.7,61.4 				"/>
				<path class="st1" d="M80.7,87l-6.6,6.6c-2.2,2.2-5.1,3.5-8.2,3.5c0,0,0,0,0,0c-3.1,0-6-1.2-8.2-3.4L50.9,87l-23,23.2h75.5
					L80.7,87z"/>
			</g>
		</g>
		<g>
			<g>
				<path class="st2" d="M145,27.9c0,12.2-10,22.2-22.2,22.2h-0.5c-12.2,0-22.2-10-22.2-22.2v-0.5c0-12.2,10-22.2,22.2-22.2h0.5
					c12.2,0,22.2,10,22.2,22.2V27.9z"/>
			</g>
			<g>
				<g>
					<path class="st1" d="M119,20.7c0.7-0.1,1.3-0.3,1.9-0.5c0.5-0.3,1-0.7,1.3-1.3c0.4-0.6,0.6-1.4,0.8-2.4h1.6v22.4h-2V22.3h-5.9
						v-1.4C117.5,20.8,118.3,20.8,119,20.7z"/>
				</g>
			</g>
		</g>
	</g>
</g>
</svg>
